# xmcd CD database file
#
# Track frame offsets:
#	150
#	14437
#	32227
#	49240
#	64347
#	76085
#	89942
#	107420
#	124480
#	138767
#	150700
#	167032
#	175770
#	192910
#
# Disc length: 3010 seconds
#
# Revision: 0
# Processed by: cddbd v1.5.2PL0 Copyright (c) Steve Scherf et al.
# Submitted via: CDex 1.70beta2
#
DISCID=bd0bc00e
DTITLE=Eduardo Kusdra - O Cantar dos Passaros ao Som da Viola
DYEAR=1900
DGENRE=Country
TTITLE0=Amanhecer na roça
TTITLE1=Cantos que encantam
TTITLE2=Quando chega a primavera
TTITLE3=Casinha de caboclo
TTITLE4=Violinha boa
TTITLE5=Caminhos da natureza
TTITLE6=Sertão paulista
TTITLE7=Mato-Grosso em festa
TTITLE8=Amanhecer no sertão
TTITLE9=Meu pedacinho de chão
TTITLE10=Raizes mineiras
TTITLE11=Parana querido
TTITLE12=Quando chega a primavera
TTITLE13=Passaros e a Natureza
EXTD=
EXTT0=
EXTT1=
EXTT2=
EXTT3=
EXTT4=
EXTT5=
EXTT6=
EXTT7=
EXTT8=
EXTT9=
EXTT10=
EXTT11=
EXTT12=
EXTT13=
PLAYORDER=
